<svg width="586" height="124" viewBox="0 0 586 124" fill="none" xmlns="http://www.w3.org/2000/svg">
<path d="M6.625 5H20.625L46.9375 75.1875L73.1875 5H87.1875L52.4375 96H41.3125L6.625 5ZM0.25 5H13.5625L15.875 65.75V96H0.25V5ZM80.25 5H93.625V96H77.9375V65.75L80.25 5ZM126.875 28.375V96H111.75V28.375H126.875ZM110.75 10.625C110.75 8.33333 111.5 6.4375 113 4.9375C114.542 3.39583 116.667 2.625 119.375 2.625C122.042 2.625 124.146 3.39583 125.688 4.9375C127.229 6.4375 128 8.33333 128 10.625C128 12.875 127.229 14.75 125.688 16.25C124.146 17.75 122.042 18.5 119.375 18.5C116.667 18.5 114.542 17.75 113 16.25C111.5 14.75 110.75 12.875 110.75 10.625ZM158.312 42.8125V96H143.25V28.375H157.438L158.312 42.8125ZM155.625 59.6875L150.75 59.625C150.792 54.8333 151.458 50.4375 152.75 46.4375C154.083 42.4375 155.917 39 158.25 36.125C160.625 33.25 163.458 31.0417 166.75 29.5C170.042 27.9167 173.708 27.125 177.75 27.125C181 27.125 183.938 27.5833 186.562 28.5C189.229 29.375 191.5 30.8125 193.375 32.8125C195.292 34.8125 196.75 37.4167 197.75 40.625C198.75 43.7917 199.25 47.6875 199.25 52.3125V96H184.125V52.25C184.125 49 183.646 46.4375 182.688 44.5625C181.771 42.6458 180.417 41.2917 178.625 40.5C176.875 39.6667 174.688 39.25 172.062 39.25C169.479 39.25 167.167 39.7917 165.125 40.875C163.083 41.9583 161.354 43.4375 159.938 45.3125C158.562 47.1875 157.5 49.3542 156.75 51.8125C156 54.2708 155.625 56.8958 155.625 59.6875ZM245.625 28.375V39.375H207.5V28.375H245.625ZM218.5 11.8125H233.562V77.3125C233.562 79.3958 233.854 81 234.438 82.125C235.062 83.2083 235.917 83.9375 237 84.3125C238.083 84.6875 239.354 84.875 240.812 84.875C241.854 84.875 242.854 84.8125 243.812 84.6875C244.771 84.5625 245.542 84.4375 246.125 84.3125L246.188 95.8125C244.938 96.1875 243.479 96.5208 241.812 96.8125C240.188 97.1042 238.312 97.25 236.188 97.25C232.729 97.25 229.667 96.6458 227 95.4375C224.333 94.1875 222.25 92.1667 220.75 89.375C219.25 86.5833 218.5 82.875 218.5 78.25V11.8125ZM276.875 88.625L295.25 28.375H311.375L284.25 106.312C283.625 107.979 282.812 109.792 281.812 111.75C280.812 113.708 279.5 115.562 277.875 117.312C276.292 119.104 274.312 120.542 271.938 121.625C269.562 122.75 266.688 123.312 263.312 123.312C261.979 123.312 260.688 123.188 259.438 122.938C258.229 122.729 257.083 122.5 256 122.25L255.938 110.75C256.354 110.792 256.854 110.833 257.438 110.875C258.062 110.917 258.562 110.938 258.938 110.938C261.438 110.938 263.521 110.625 265.188 110C266.854 109.417 268.208 108.458 269.25 107.125C270.333 105.792 271.25 104 272 101.75L276.875 88.625ZM266.5 28.375L282.562 79L285.25 94.875L274.812 97.5625L250.25 28.375H266.5ZM378.5 83.5625V96H332.812V83.5625H378.5ZM337.188 5V96H321.5V5H337.188ZM427.25 82.4375V50.1875C427.25 47.7708 426.812 45.6875 425.938 43.9375C425.062 42.1875 423.729 40.8333 421.938 39.875C420.188 38.9167 417.979 38.4375 415.312 38.4375C412.854 38.4375 410.729 38.8542 408.938 39.6875C407.146 40.5208 405.75 41.6458 404.75 43.0625C403.75 44.4792 403.25 46.0833 403.25 47.875H388.25C388.25 45.2083 388.896 42.625 390.188 40.125C391.479 37.625 393.354 35.3958 395.812 33.4375C398.271 31.4792 401.208 29.9375 404.625 28.8125C408.042 27.6875 411.875 27.125 416.125 27.125C421.208 27.125 425.708 27.9792 429.625 29.6875C433.583 31.3958 436.688 33.9792 438.938 37.4375C441.229 40.8542 442.375 45.1458 442.375 50.3125V80.375C442.375 83.4583 442.583 86.2292 443 88.6875C443.458 91.1042 444.104 93.2083 444.938 95V96H429.5C428.792 94.375 428.229 92.3125 427.812 89.8125C427.438 87.2708 427.25 84.8125 427.25 82.4375ZM429.438 54.875L429.562 64.1875H418.75C415.958 64.1875 413.5 64.4583 411.375 65C409.25 65.5 407.479 66.25 406.062 67.25C404.646 68.25 403.583 69.4583 402.875 70.875C402.167 72.2917 401.812 73.8958 401.812 75.6875C401.812 77.4792 402.229 79.125 403.062 80.625C403.896 82.0833 405.104 83.2292 406.688 84.0625C408.312 84.8958 410.271 85.3125 412.562 85.3125C415.646 85.3125 418.333 84.6875 420.625 83.4375C422.958 82.1458 424.792 80.5833 426.125 78.75C427.458 76.875 428.167 75.1042 428.25 73.4375L433.125 80.125C432.625 81.8333 431.771 83.6667 430.562 85.625C429.354 87.5833 427.771 89.4583 425.812 91.25C423.896 93 421.583 94.4375 418.875 95.5625C416.208 96.6875 413.125 97.25 409.625 97.25C405.208 97.25 401.271 96.375 397.812 94.625C394.354 92.8333 391.646 90.4375 389.688 87.4375C387.729 84.3958 386.75 80.9583 386.75 77.125C386.75 73.5417 387.417 70.375 388.75 67.625C390.125 64.8333 392.125 62.5 394.75 60.625C397.417 58.75 400.667 57.3333 404.5 56.375C408.333 55.375 412.708 54.875 417.625 54.875H429.438ZM473.062 42.8125V96H458V28.375H472.188L473.062 42.8125ZM470.375 59.6875L465.5 59.625C465.542 54.8333 466.208 50.4375 467.5 46.4375C468.833 42.4375 470.667 39 473 36.125C475.375 33.25 478.208 31.0417 481.5 29.5C484.792 27.9167 488.458 27.125 492.5 27.125C495.75 27.125 498.688 27.5833 501.312 28.5C503.979 29.375 506.25 30.8125 508.125 32.8125C510.042 34.8125 511.5 37.4167 512.5 40.625C513.5 43.7917 514 47.6875 514 52.3125V96H498.875V52.25C498.875 49 498.396 46.4375 497.438 44.5625C496.521 42.6458 495.167 41.2917 493.375 40.5C491.625 39.6667 489.438 39.25 486.812 39.25C484.229 39.25 481.917 39.7917 479.875 40.875C477.833 41.9583 476.104 43.4375 474.688 45.3125C473.312 47.1875 472.25 49.3542 471.5 51.8125C470.75 54.2708 470.375 56.8958 470.375 59.6875ZM570.625 82V0H585.75V96H572.062L570.625 82ZM526.625 62.9375V61.625C526.625 56.5 527.229 51.8333 528.438 47.625C529.646 43.375 531.396 39.7292 533.688 36.6875C535.979 33.6042 538.771 31.25 542.062 29.625C545.354 27.9583 549.062 27.125 553.188 27.125C557.271 27.125 560.854 27.9167 563.938 29.5C567.021 31.0833 569.646 33.3542 571.812 36.3125C573.979 39.2292 575.708 42.7292 577 46.8125C578.292 50.8542 579.208 55.3542 579.75 60.3125V64.5C579.208 69.3333 578.292 73.75 577 77.75C575.708 81.75 573.979 85.2083 571.812 88.125C569.646 91.0417 567 93.2917 563.875 94.875C560.792 96.4583 557.188 97.25 553.062 97.25C548.979 97.25 545.292 96.3958 542 94.6875C538.75 92.9792 535.979 90.5833 533.688 87.5C531.396 84.4167 529.646 80.7917 528.438 76.625C527.229 72.4167 526.625 67.8542 526.625 62.9375ZM541.688 61.625V62.9375C541.688 66.0208 541.958 68.8958 542.5 71.5625C543.083 74.2292 543.979 76.5833 545.188 78.625C546.396 80.625 547.958 82.2083 549.875 83.375C551.833 84.5 554.167 85.0625 556.875 85.0625C560.292 85.0625 563.104 84.3125 565.312 82.8125C567.521 81.3125 569.25 79.2917 570.5 76.75C571.792 74.1667 572.667 71.2917 573.125 68.125V56.8125C572.875 54.3542 572.354 52.0625 571.562 49.9375C570.812 47.8125 569.792 45.9583 568.5 44.375C567.208 42.75 565.604 41.5 563.688 40.625C561.812 39.7083 559.583 39.25 557 39.25C554.25 39.25 551.917 39.8333 550 41C548.083 42.1667 546.5 43.7708 545.25 45.8125C544.042 47.8542 543.146 50.2292 542.562 52.9375C541.979 55.6458 541.688 58.5417 541.688 61.625Z" fill="url(#paint0_linear_3_3)"/>
<defs>
<linearGradient id="paint0_linear_3_3" x1="279" y1="42" x2="279" y2="130.5" gradientUnits="userSpaceOnUse">
<stop stop-color="#DB00FF"/>
<stop offset="0.787438" stop-color="#FF0099"/>
</linearGradient>
</defs>
</svg>
